
<svg width="42" height="43" viewBox="0 0 42 43" fill="none" xmlns="http://www.w3.org/2000/svg">
<path d="M10.478 14.6885C12.3195 14.6885 14.0855 13.957 15.3877 12.655C16.6898 11.353 17.4213 9.58706 17.4213 7.74573C17.4213 5.90439 16.6898 4.13848 15.3877 2.83646C14.0855 1.53444 12.3195 0.802976 10.478 0.802976C8.63649 0.802976 6.87043 1.53444 5.56831 2.83646C4.26618 4.13848 3.53465 5.90439 3.53465 7.74573C3.53465 9.58706 4.26618 11.353 5.56831 12.655C6.87043 13.957 8.63649 14.6885 10.478 14.6885ZM10.478 11.2171C9.55724 11.2171 8.6742 10.8514 8.02314 10.2004C7.37208 9.54935 7.00632 8.66639 7.00632 7.74573C7.00632 6.82506 7.37208 5.9421 8.02314 5.29109C8.6742 4.64008 9.55724 4.27435 10.478 4.27435C11.3987 4.27435 12.2818 4.64008 12.9328 5.29109C13.5839 5.9421 13.9496 6.82506 13.9496 7.74573C13.9496 8.66639 13.5839 9.54935 12.9328 10.2004C12.2818 10.8514 11.3987 11.2171 10.478 11.2171ZM0.0629883 21.0527C0.0629883 18.8171 1.87751 17.0027 4.11326 17.0027H16.8427C19.0784 17.0027 20.893 18.8171 20.893 21.0527V32.0453C20.893 34.8073 19.7957 37.4562 17.8425 39.4092C15.8893 41.3623 13.2402 42.4595 10.478 42.4595C7.71575 42.4595 5.06666 41.3623 3.11347 39.4092C1.16028 37.4562 0.0629883 34.8073 0.0629883 32.0453V21.0527ZM4.11326 20.4741C3.95981 20.4741 3.81263 20.5351 3.70412 20.6436C3.59561 20.7521 3.53465 20.8992 3.53465 21.0527V32.0453C3.53465 33.8867 4.26618 35.6526 5.56831 36.9546C6.87043 38.2566 8.63649 38.9881 10.478 38.9881C12.3195 38.9881 14.0855 38.2566 15.3877 36.9546C16.6898 35.6526 17.4213 33.8867 17.4213 32.0453V21.0527C17.4213 20.8992 17.3603 20.7521 17.2518 20.6436C17.1433 20.5351 16.9962 20.4741 16.8427 20.4741H4.11326ZM17.4838 13.7952C18.5403 14.3896 19.7341 14.6971 20.9463 14.6871C22.1586 14.677 23.3471 14.3498 24.3936 13.7379C25.4401 13.126 26.3082 12.2508 26.9114 11.1993C27.5147 10.1478 27.8321 8.95677 27.8321 7.74457C27.8321 6.53237 27.5147 5.34129 26.9114 4.28982C26.3082 3.23836 25.4401 2.36315 24.3936 1.75125C23.3471 1.13936 22.1586 0.812108 20.9463 0.802058C19.7341 0.792007 18.5403 1.0995 17.4838 1.69396C18.2406 2.56875 18.8354 3.58702 19.2243 4.70249C19.7529 4.41286 20.3479 4.26588 20.9506 4.276C21.5534 4.28612 22.1431 4.45299 22.6617 4.7602C23.1804 5.06741 23.6101 5.50436 23.9086 6.02805C24.2071 6.55174 24.364 7.14412 24.364 7.74688C24.364 8.34965 24.2071 8.94203 23.9086 9.46572C23.6101 9.98941 23.1804 10.4264 22.6617 10.7336C22.1431 11.0408 21.5534 11.2076 20.9506 11.2178C20.3479 11.2279 19.7529 11.0809 19.2243 10.7913C18.8387 11.8934 18.2482 12.9126 17.4838 13.7952ZM18.2545 42.1216C19.1 42.3438 19.9795 42.4564 20.893 42.4595C23.6552 42.4595 26.3043 41.3623 28.2575 39.4092C30.2107 37.4562 31.308 34.8073 31.308 32.0453V21.0527C31.308 19.9785 30.8812 18.9484 30.1217 18.1889C29.3621 17.4294 28.3319 17.0027 27.2577 17.0027H21.7493C22.5432 17.9631 23.0593 19.1619 23.1796 20.4741H27.2531C27.4065 20.4741 27.5537 20.5351 27.6622 20.6436C27.7707 20.7521 27.8317 20.8992 27.8317 21.0527V32.0453C27.8317 33.8415 27.1357 35.5677 25.8897 36.8615C24.6438 38.1552 22.9449 38.9158 21.1499 38.9835C20.3653 40.1869 19.3886 41.2468 18.2545 42.1216ZM27.8965 13.7952C28.953 14.3896 30.1468 14.6971 31.359 14.6871C32.5713 14.677 33.7598 14.3498 34.8063 13.7379C35.8528 13.126 36.7209 12.2508 37.3241 11.1993C37.9274 10.1478 38.2448 8.95677 38.2448 7.74457C38.2448 6.53237 37.9274 5.34129 37.3241 4.28982C36.7209 3.23836 35.8528 2.36315 34.8063 1.75125C33.7598 1.13936 32.5713 0.812108 31.359 0.802058C30.1468 0.792007 28.953 1.0995 27.8965 1.69396C28.6533 2.56875 29.2481 3.58702 29.6369 4.70249C30.1656 4.41286 30.7606 4.26588 31.3633 4.276C31.966 4.28612 32.5558 4.45299 33.0744 4.7602C33.5931 5.06741 34.0228 5.50436 34.3213 6.02805C34.6197 6.55174 34.7767 7.14412 34.7767 7.74688C34.7767 8.34965 34.6197 8.94203 34.3213 9.46572C34.0228 9.98941 33.5931 10.4264 33.0744 10.7336C32.5558 11.0408 31.966 11.2076 31.3633 11.2178C30.7606 11.2279 30.1656 11.0809 29.6369 10.7913C29.2514 11.8934 28.6609 12.9126 27.8965 13.7952ZM28.6672 42.1216C29.5127 42.3438 30.3922 42.4564 31.3056 42.4595C34.0679 42.4595 36.717 41.3623 38.6702 39.4092C40.6233 37.4562 41.7206 34.8073 41.7206 32.0453V21.0527C41.7206 19.979 41.2942 18.9492 40.5352 18.1897C39.7761 17.4303 38.7465 17.0033 37.6727 17.0027H32.1643C32.9582 17.9631 33.4766 19.1619 33.5946 20.4741H37.668C37.8215 20.4741 37.9687 20.5351 38.0772 20.6436C38.1857 20.7521 38.2467 20.8992 38.2467 21.0527V32.0453C38.2467 33.8415 37.5507 35.5677 36.3047 36.8615C35.0588 38.1552 33.3598 38.9158 31.5649 38.9835C30.7803 40.1869 29.8013 41.2468 28.6672 42.1216Z" fill="white"/>
</svg>
