
<svg width="38" height="42" viewBox="0 0 38 42" fill="none" xmlns="http://www.w3.org/2000/svg">
<path d="M0.774658 31.8409C0.774658 31.2963 0.953677 30.8368 1.31172 30.4625C1.66975 30.0881 2.10335 29.9009 2.6125 29.9009C2.88477 29.9009 3.14887 29.9438 3.40481 30.0296C3.66074 30.1153 3.90715 30.2426 4.14403 30.4114C4.58647 30.6837 5.02891 30.9219 5.47135 31.1261C5.9138 31.3303 6.39027 31.4324 6.90078 31.4324C8.0239 31.4324 8.98571 31.0329 9.78619 30.2338C10.5867 29.4346 10.9862 28.4728 10.9849 27.3484C10.9835 26.2239 10.5839 25.2628 9.78619 24.465C8.98843 23.6672 8.02663 23.267 6.90078 23.2643C6.39027 23.2643 5.89678 23.3494 5.4203 23.5195C4.94383 23.6897 4.5184 23.945 4.14403 24.2853C3.93982 24.4555 3.70158 24.5834 3.42931 24.6692C3.15704 24.755 2.88477 24.7972 2.6125 24.7958C2.10199 24.7958 1.66839 24.6086 1.31172 24.2342C0.955039 23.8599 0.77602 23.4004 0.774658 22.8559V15.0961C0.774658 14.5175 0.970694 14.0329 1.36277 13.6422C1.75484 13.2515 2.23948 13.0554 2.8167 13.0541H10.4744C10.3042 12.5436 10.1769 12.033 10.0925 11.5225C10.0081 11.012 9.96521 10.5015 9.96384 9.99101C9.96384 7.43846 10.8576 5.26913 12.645 3.48302C14.4325 1.69691 16.6018 0.803182 19.153 0.80182C21.7042 0.800459 23.8742 1.69419 25.6631 3.48302C27.4519 5.27185 28.3449 7.44118 28.3422 9.99101C28.3422 10.5015 28.3 11.012 28.2156 11.5225C28.1312 12.033 28.0032 12.5436 27.8317 13.0541H35.4894C36.0679 13.0541 36.5533 13.2501 36.9453 13.6422C37.3374 14.0342 37.5328 14.5189 37.5314 15.0961V22.8559C37.5314 23.4344 37.3354 23.9198 36.9433 24.3118C36.5512 24.7039 36.0666 24.8993 35.4894 24.8979C35.2171 24.8979 34.9788 24.838 34.7746 24.7182C34.5704 24.5984 34.3662 24.4541 34.162 24.2853C33.7877 23.945 33.3622 23.6897 32.8858 23.5195C32.4093 23.3494 31.9158 23.2643 31.4053 23.2643C30.2822 23.2643 29.3204 23.6645 28.5199 24.465C27.7194 25.2655 27.3198 26.2266 27.3212 27.3484C27.3226 28.4701 27.7228 29.4319 28.5219 30.2338C29.321 31.0356 30.2822 31.4352 31.4053 31.4324C31.9158 31.4324 32.4093 31.3474 32.8858 31.1772C33.3622 31.007 33.7877 30.7518 34.162 30.4114C34.3322 30.2412 34.5282 30.0963 34.7501 29.9765C34.972 29.8567 35.2184 29.7974 35.4894 29.7988C36.0679 29.7988 36.5533 29.9948 36.9453 30.3869C37.3374 30.779 37.5328 31.2636 37.5314 31.8409V39.6006C37.5314 40.1792 37.3354 40.6645 36.9433 41.0566C36.5512 41.4487 36.0666 41.644 35.4894 41.6426H2.8167C2.23812 41.6426 1.75348 41.4466 1.36277 41.0545C0.972056 40.6625 0.77602 40.1778 0.774658 39.6006V31.8409ZM4.85874 37.5586H33.4473V35.2102C33.107 35.3123 32.7748 35.3892 32.4508 35.441C32.1268 35.4927 31.7783 35.5179 31.4053 35.5165C29.159 35.5165 27.2361 34.7167 25.6365 33.1171C24.0369 31.5175 23.2371 29.5946 23.2371 27.3484C23.2371 25.1021 24.0369 23.1792 25.6365 21.5796C27.2361 19.98 29.159 19.1802 31.4053 19.1802C31.7797 19.1802 32.1288 19.2061 32.4528 19.2578C32.7769 19.3095 33.1083 19.3858 33.4473 19.4865V17.1382H24.156C23.5775 17.1382 23.0928 16.951 22.7021 16.5766C22.3114 16.2022 22.1154 15.7428 22.114 15.1982C22.114 14.9259 22.1569 14.6448 22.2426 14.3548C22.3284 14.0649 22.4897 13.8355 22.7266 13.6667C23.3052 13.2583 23.7054 12.7219 23.9273 12.0576C24.1492 11.3932 24.2595 10.7044 24.2581 9.99101C24.2581 8.56158 23.7646 7.35337 22.7777 6.36638C21.7907 5.3794 20.5825 4.8859 19.153 4.8859C17.7236 4.8859 16.5154 5.3794 15.5284 6.36638C14.5414 7.35337 14.0479 8.56158 14.0479 9.99101C14.0479 10.7057 14.1589 11.3953 14.3808 12.0596C14.6027 12.7239 15.0022 13.2596 15.5795 13.6667C15.8177 13.8369 15.9797 14.0499 16.0655 14.3058C16.1512 14.5618 16.1934 14.8252 16.1921 15.0961C16.1921 15.6747 15.996 16.16 15.604 16.5521C15.2119 16.9442 14.7272 17.1395 14.15 17.1382H4.85874V19.4865C5.19908 19.3844 5.53125 19.3082 5.85526 19.2578C6.17926 19.2074 6.52777 19.1816 6.90078 19.1802C9.14703 19.1802 11.0699 19.98 12.6695 21.5796C14.2691 23.1792 15.0689 25.1021 15.0689 27.3484C15.0689 29.5946 14.2691 31.5175 12.6695 33.1171C11.0699 34.7167 9.14703 35.5165 6.90078 35.5165C6.52641 35.5165 6.17722 35.4907 5.85321 35.4389C5.52921 35.3872 5.19772 35.311 4.85874 35.2102V37.5586Z" fill="white"/>
</svg>
