
<svg width="36" height="43" viewBox="0 0 36 43" fill="none" xmlns="http://www.w3.org/2000/svg">
<path d="M32.0519 6.75291H32.7146C33.0668 6.75237 33.4077 6.87713 33.6766 7.10494C33.9455 7.33275 34.1248 7.64879 34.1825 7.99669L35.1721 13.9478C35.2075 14.1608 35.1961 14.379 35.1388 14.5872C35.0814 14.7954 34.9795 14.9886 34.8401 15.1534C34.7007 15.3182 34.5272 15.4506 34.3315 15.5415C34.1358 15.6323 33.9228 15.6795 33.7071 15.6795H31.416L29.6033 41.0788C29.5762 41.454 29.4082 41.805 29.1331 42.0612C28.858 42.3174 28.4961 42.4597 28.1205 42.4595H7.12897C6.75276 42.4604 6.39019 42.3185 6.11442 42.0622C5.83866 41.806 5.67024 41.4545 5.64316 41.0788L3.83642 15.6795H1.55422C1.33854 15.6795 1.12546 15.6323 0.929802 15.5415C0.734139 15.4506 0.560577 15.3182 0.421172 15.1534C0.281767 14.9886 0.179862 14.7954 0.122536 14.5872C0.0652105 14.379 0.0538376 14.1608 0.089209 13.9478L1.07876 7.99669C1.13652 7.64879 1.31583 7.33275 1.5847 7.10494C1.85357 6.87713 2.19452 6.75237 2.54673 6.75291H3.19752L2.8855 2.39671C2.8708 2.19277 2.89824 1.98797 2.96611 1.79512C3.03397 1.60227 3.14082 1.42549 3.27996 1.27583C3.41911 1.12617 3.58757 1.00684 3.77483 0.925283C3.96209 0.843727 4.16413 0.801697 4.36833 0.801819H30.8811C31.0853 0.801697 31.2873 0.843727 31.4746 0.925283C31.6618 1.00684 31.8303 1.12617 31.9695 1.27583C32.1086 1.42549 32.2154 1.60227 32.2833 1.79512C32.3512 1.98797 32.3786 2.19277 32.3639 2.39671L32.0519 6.75291ZM29.0743 6.75291L29.2853 3.77737H5.96409L6.17508 6.75291H29.0743ZM3.62246 12.704H31.9538L31.4576 9.72846H3.80373L3.30747 12.704H3.62246ZM6.81397 15.6795L8.51077 39.4839H26.7386L28.4354 15.6795H6.81397Z" fill="white"/>
</svg>
