    <svg className='w-7' viewBox="0 0 29 29" fill="none" xmlns="http://www.w3.org/2000/svg">
    <path d="M14.5 17.5208C13.3783 17.5208 12.3026 17.9664 11.5095 18.7595C10.7164 19.5526 10.2708 20.6283 10.2708 21.75C10.2708 22.8716 10.7164 23.9473 11.5095 24.7405C12.3026 25.5336 13.3783 25.9791 14.5 25.9791C15.6216 25.9791 16.6973 25.5336 17.4905 24.7405C18.2836 23.9473 18.7291 22.8716 18.7291 21.75C18.7291 20.6283 18.2836 19.5526 17.4905 18.7595C16.6973 17.9664 15.6216 17.5208 14.5 17.5208ZM12.6875 21.75C12.6875 21.2693 12.8784 20.8083 13.2183 20.4683C13.5583 20.1284 14.0193 19.9375 14.5 19.9375C14.9807 19.9375 15.4417 20.1284 15.7816 20.4683C16.1215 20.8083 16.3125 21.2693 16.3125 21.75C16.3125 22.2307 16.1215 22.6917 15.7816 23.0316C15.4417 23.3715 14.9807 23.5625 14.5 23.5625C14.0193 23.5625 13.5583 23.3715 13.2183 23.0316C12.8784 22.6917 12.6875 22.2307 12.6875 21.75Z" fill="#EAD196" />
    <path d="M21.1772 8.59849L17.336 3.21295L3.21175 14.4964L2.42875 14.4879V14.5H1.8125V29H27.1875V14.5H26.0251L23.7123 7.73453L21.1772 8.59849ZM23.4719 14.5H11.3547L20.3797 11.4236L22.2188 10.8351L23.4719 14.5ZM18.7896 9.41291L9.47333 12.5884L16.8514 6.69416L18.7896 9.41291ZM4.22917 24.3709V19.1267C4.73896 18.9461 5.202 18.6539 5.58455 18.2716C5.96709 17.8892 6.25949 17.4263 6.44042 16.9167H22.5596C22.7404 17.4265 23.0328 17.8896 23.4153 18.2722C23.7979 18.6547 24.261 18.9471 24.7708 19.1279V24.3721C24.261 24.5529 23.7979 24.8453 23.4153 25.2278C23.0328 25.6104 22.7404 26.0735 22.5596 26.5833H6.44283C6.26181 26.073 5.96912 25.6096 5.58615 25.2268C5.20317 24.844 4.73957 24.5516 4.22917 24.3709Z" fill="#EAD196" />
</svg>
