
<svg width="40" height="40" viewBox="0 0 40 40" fill="none" xmlns="http://www.w3.org/2000/svg">
<path d="M20.0058 0.618591C22.6054 0.618591 25.0985 1.65128 26.9367 3.48947C28.7749 5.32767 29.8076 7.82079 29.8076 10.4204C29.8076 13.02 28.7749 15.5131 26.9367 17.3513C25.0985 19.1895 22.6054 20.2222 20.0058 20.2222C17.4062 20.2222 14.9131 19.1895 13.0749 17.3513C11.2367 15.5131 10.204 13.02 10.204 10.4204C10.204 7.82079 11.2367 5.32767 13.0749 3.48947C14.9131 1.65128 17.4062 0.618591 20.0058 0.618591ZM20.0058 5.51949C18.706 5.51949 17.4595 6.03583 16.5404 6.95493C15.6213 7.87403 15.1049 9.12059 15.1049 10.4204C15.1049 11.7202 15.6213 12.9668 16.5404 13.8858C17.4595 14.8049 18.706 15.3213 20.0058 15.3213C21.3056 15.3213 22.5522 14.8049 23.4713 13.8858C24.3904 12.9668 24.9067 11.7202 24.9067 10.4204C24.9067 9.12059 24.3904 7.87403 23.4713 6.95493C22.5522 6.03583 21.3056 5.51949 20.0058 5.51949ZM20.0058 22.6726C26.5485 22.6726 39.6094 25.9317 39.6094 32.4744V39.8258H0.402222V32.4744C0.402222 25.9317 13.4631 22.6726 20.0058 22.6726ZM20.0058 27.3285C12.728 27.3285 5.05808 30.9062 5.05808 32.4744V35.1699H34.9536V32.4744C34.9536 30.9062 27.2837 27.3285 20.0058 27.3285Z" fill="white"/>
</svg>
