<svg width="20" height="22" viewBox="0 0 17 17" fill="none" xmlns="http://www.w3.org/2000/svg">
    <path fillRule="evenodd" clipRule="evenodd" d="M8.50004 0.583313C4.12767 0.583313 0.583374 4.1276 0.583374 8.49998C0.583374 9.99623 0.998999 11.3975 1.72179 12.5913L1.01562 14.9916C0.975078 15.1295 0.972411 15.2757 1.0079 15.4149C1.04339 15.5541 1.11573 15.6811 1.21731 15.7827C1.31889 15.8843 1.44596 15.9566 1.58516 15.9921C1.72437 16.0276 1.87056 16.0249 2.00837 15.9844L4.40871 15.2782C5.64266 16.0248 7.0578 16.4186 8.50004 16.4166C12.8724 16.4166 16.4167 12.8724 16.4167 8.49998C16.4167 4.1276 12.8724 0.583313 8.50004 0.583313ZM6.70929 10.2915C8.31083 11.8923 9.83954 12.1036 10.3795 12.1234C11.2004 12.1535 12 11.5265 12.3111 10.799C12.3504 10.7085 12.3647 10.6091 12.3524 10.5112C12.3401 10.4133 12.3018 10.3205 12.2415 10.2424C11.8076 9.68827 11.221 9.29006 10.6478 8.89423C10.5282 8.81149 10.3811 8.77829 10.2375 8.80161C10.0939 8.82493 9.96488 8.90295 9.87754 9.01931L9.40254 9.74369C9.37757 9.78263 9.33865 9.81055 9.29376 9.82174C9.24887 9.83292 9.20141 9.82653 9.16108 9.80385C8.83887 9.6194 8.36942 9.3059 8.03217 8.96865C7.69492 8.6314 7.40042 8.18331 7.23496 7.88169C7.21444 7.84337 7.20851 7.79891 7.21826 7.75655C7.22802 7.71419 7.25279 7.6768 7.288 7.65131L8.0195 7.10823C8.12389 7.01746 8.19126 6.89147 8.20878 6.75425C8.2263 6.61702 8.19274 6.47815 8.1145 6.36406C7.75983 5.84473 7.34658 5.18448 6.74729 4.74669C6.66995 4.69064 6.57935 4.65569 6.4844 4.64528C6.38946 4.63487 6.29344 4.64936 6.20579 4.68731C5.47746 4.99923 4.84729 5.79881 4.87737 6.62135C4.89717 7.16127 5.10854 8.68998 6.70929 10.2915Z" fill="black" />
</svg>